<mxfile host="app.diagrams.net" modified="2022-02-16T14:20:47.810Z" agent="5.0 (Windows NT 10.0; Win64; x64) AppleWebKit/537.36 (KHTML, like Gecko) Chrome/97.0.4692.71 Safari/537.36" etag="oY91lJOZs5EnqT_qR2bG" version="16.5.3" type="github">
  <diagram id="rd5YW7BIjzD5u_K9CBBN" name="Page-1">
    <mxGraphModel dx="2522" dy="737" grid="0" gridSize="10" guides="1" tooltips="1" connect="1" arrows="1" fold="1" page="1" pageScale="1" pageWidth="1100" pageHeight="850" math="0" shadow="0">
      <root>
        <mxCell id="0" />
        <mxCell id="1" parent="0" />
        <mxCell id="_ZrnN3WsiZ-yGUKqU9Ik-4" value="Nagesh Vengal" style="shape=image;verticalLabelPosition=bottom;labelBackgroundColor=default;verticalAlign=top;aspect=fixed;imageAspect=0;image=data:image/jpeg,/9j/2wCEAAgGBgcGBQgHBwcJCQgKDBQNDAsLDBkSEw8UHRofHh0aHBwgJC4nICIsIxwcKDcpLDAxNDQ0Hyc5PTgyPC4zNDIBCQkJDAsMGA0NGDIhHCEyMjIyMjIyMjIyMjIyMjIyMjIyMjIyMjIyMjIyMjIyMjIyMjIyMjIyMjIyMjIyMjIyMv/AABEIAYwBjAMBIgACEQEDEQH/xAGiAAABBQEBAQEBAQAAAAAAAAAAAQIDBAUGBwgJCgsQAAIBAwMCBAMFBQQEAAABfQECAwAEEQUSITFBBhNRYQcicRQygZGhCCNCscEVUtHwJDNicoIJChYXGBkaJSYnKCkqNDU2Nzg5OkNERUZHSElKU1RVVldYWVpjZGVmZ2hpanN0dXZ3eHl6g4SFhoeIiYqSk5SVlpeYmZqio6Slpqeoqaqys7S1tre4ubrCw8TFxsfIycrS09TV1tfY2drh4uPk5ebn6Onq8fLz9PX29/j5+gEAAwEBAQEBAQEBAQAAAAAAAAECAwQFBgcICQoLEQACAQIEBAMEBwUEBAABAncAAQIDEQQFITEGEkFRB2FxEyIygQgUQpGhscEJIzNS8BVictEKFiQ04SXxFxgZGiYnKCkqNTY3ODk6Q0RFRkdISUpTVFVWV1hZWmNkZWZnaGlqc3R1dnd4eXqCg4SFhoeIiYqSk5SVlpeYmZqio6Slpqeoqaqys7S1tre4ubrCw8TFxsfIycrS09TV1tfY2dri4+Tl5ufo6ery8/T19vf4+fr/2gAMAwEAAhEDEQA/AOnG+PaykMPXgHH8j+lOidXYpn5+4xtP5Gow8bRMRnHdhyKXYNwYMCD0zyK7Njie5YCnPRlI6Ecf/XpwcbcyqSRxnpn34qESnaFJOf4SMEj2560/crrjeNw4JXj8CDUkoso7EYZSOPXNP+7yCNuOh7VWjBAAIVo/y21NvAYbXwx6ZoGTcEjkjv8AWnEkdgR6ioxwSduD3x0NPUnsO3XOQaQAGBY/MQfp0qTg+x9qRSrAAgBs+tLkhSp4welFwFyO/A7U1ogR8vB9fWnbhuxnnrSkc9Tg+nSmBH8yHDfhinAjsSKcMHI/HkU0qf4T+FXcQo+vOacCT1/Omqc/eH4mn4I+n8qBjiOhJwf7w7Uu/JBfhugdf6imBh1GadnPXimASQQyFfPjBA/iU7c/Q9RTo729sGJkxcWyKcMR80Y7Z9T/APXpo3JnaRg/wnofpUkchBPl/KehQ9R9DWM4GkJs1LG7F0qyQjAfkKecDvnn+VaCtuHFcr5Msc8lxaTGGQrtZAMZ/wAO3+TV+HXEcJFKrJcLhC5fIYep6VjZrc2Uk9jeBxS5FQ7sNjlgOpA9u9PpLUbJKUUwdvSnCmA7tRQOaKLhcWikpaBC0CkpaBi0mKKKAAUtJS0hBS8UlLxQMKSlzRQISilooAaRRilpaBjMHFFOxSYp3EJRS4oAoAAKMUv0oxSA8iRZPNyEZMckhuv1x1/Kp0kSTh/lP95eh+tVmDEFknIGe5BU+3/6jU6HyUxsyD1wOhrrOZ7k+0EnKHnoV706MurYbDYHynNU40+YmBnjHGQRkH8On5YqYuANsw5Jyu08n6ZptEltJRtwfkz1Vuh+hp+Ay4Clfp3qssokjGM4HXsc+4NSruAxjjsVHSoAnjYqNuQr9ee/4U8SDkHPv2P/ANeq0ajlfMZ1z/Eclfx6/wA6lBK/KRuXH8NMCzkAhSSSehxT8FfUr2PpVWNsbthzz3OTUySBwyhzkcZ6EVIEuc9MMvt1FJ3z+eKSP5RneWPQ7utOXBbI4yO3emMdkFcE5+nWnDIUZ5FN2g8DrnoKM9Txnv8A/XpXAdt5yeT60AEEgHgdBQPvY5B+tKccZyD71VwAru5A5HakG4Yx+dLyAP0NPGGPOT7GquAxT7fnSld2MDn8iKMdT1HrQCR1Jx2A7UCF38fPk46OOo+tMubeO5jAkIwPuyL2+vpUoOe/PqKbtKHKHGfyNJpPcpNoh+2X1gVMkpkU4BJJww9/w963bWdjbiaIloiOEkcZBHYGslXAyoG090PQ/Q01oPlYQMY2PLIeh/Dp+NYTg1sbQmnudQj7lBwV9QeoqQGsGx1WPasE7+RNHxhujn0+vTFbCTIzbQ2fT3qDUsA07PtUQNODUgHUUZozTQmOpKSl7UALmikrN1nXrDQrUT30wXccIg5Zz7DrTSbdkK9tWadBIUZPSvKNS+I2rXbSJp0MdvFnCvt3Nj6ngflXLX+r6neSeZd380rj1c8fgMCto4eT3MnVt0PcjrWmKSG1C1GDzmVeO3r61J/amnbtv2+1z6ecv+NfOpmIzg0glLHPrWn1bzI9s+x9LBgRkEY9aWvBtJ8WappKqlteOI1HEb/Mo/A12uk/Esyjy7+1TfjiSI4H4g5x+dZSw81saRqp7novFJUNpcxXlrHPEysjqCCpzU9YeppfQKKKKAAUmKUUUANpcUd6WgBMUUuBS0AeOBmkAynynqeCD9DmpGhPl7owHYd+Of8ACqrPk4zhj3UlW/nz+tTxy+ao8zk9yOCK6zme4sTyKxMiBc9GAP5Ef/XqYvE6BScD/ZPH5dqjCRofln27um7AOfr/AI08rKFyyI4HYj+RpskljVguN+/0J5I/SpElbOCo24z5kfI+hHWqgljdgAHhkXkqRtJ/of1qwGxkgqXPPpn8v8KQE3zdUHPY4yPfjrT0n3AZ2bvdiPyqBZTgFkkTnt8w/Mf1FSeWrLu81jj0Ofw//XSEWcZQtggegHP406MknGdy9wRyKqB3gcEj936qSMfhVr5J1DKQJPyzSAnXp1+oPanqVwT0GOTVYPInyPgY79jU65YA5Ix37UmUiTKt82V/3xT9ucEn5h39ahVjnIIPrx0qRSeo6enWgBACDhwMduf5VIGIYg9PegnPTDA+tAAxjPOPxoAUcenvS8E/pg0wIUyRwKcGyQMn2IouA4ZHWlKjgg/hSAAD/ZPp3pfuk4H4CquFhCrKf6il3jvgk9RThg55/CmlQ2ccY7VVwsNZB04/E/yNJuKNhuQDwehFL046U7huCOfTpQBFNDDdRkS8gdHXgj605L29sFw0rSx5+8w3DHHbr+tKUKfMDz7DpSK+euOeoPQ1E4J7Fqo0b9jqEF8g8uQGXA3Rjqv1q70JBrjjC8TtJaSNFIwwyA4yOv8AP0rT0zVm83y7tQiljulbglvc/p+VYSi1ubxknsb+aKj3ASum4Fl5wOwPSnfyqUxsk/Gimg1leIdcg8P6PLfSgOw+WKPON7noP8aaV2DdkUPGHiyLw5aLHGBJfTD91GD90f3jxXmUi3Wp3Bv9WlaWd+ing49/Sk+03Go3kmrai/m3Eh+UHoo7YHYelRS3WScn866oRUV5mDfM/ImlaMKUUAKOgHSse5iOTjmppLnnrURlB64q7iUSoYST/WmEFOKueYPSmvGsnIq1MOQp7zxipkduCDilNuc8VNHB61XMiHA63wT4pbSbxYLmT/Q5Pv8A+yexr2GGVJ4kljYMjDKkHORXzo8RjwwzxXpHw78S7lGkXUg/6YZ6n1X+Zrnr01bmRdN2dmej0mPSl70VxnQ9w/CiiimITFLRRQAUtJS0AeJxSyOdoeOfHUHr+IqdXXdtKPEwGSMcfrVKII+PncHsScEVaSS4TCHa47bucV2M5nuWtwfJ4PHPTNRqVGQjOrjkZOw4/kfyqJjuIDxshPeNv6Yz+VSq/wBwK4lTpu3YI+o6Ggl6krMdhHMhHUHaD/SnK4VVym3HZh0+hqJo9rdsDpnt+eP60zlW25K+20c/59sUCZeR1K5RlYH0xz/n3pkRYyblY+8ch5H0IqsqoSZFDSMOcAbCPx4qdMuwdQrkdDIMEfj1pWAuxzh1G4MuO7U14zjfEAc9CpwPzFQxyZkIzsk7q2CD7j/69WEYbipUKx67eM0gHRzN0lIwenepo0EeQuQp69f5VCke9W+YEj+IUCV4xh0JTv3/AK07Ai2qg8KB+fWnFvL+bO3nnPT86hBUjdGVb1X0/CpAwLbMAnsM8/hUtFIsBgxBIAY04gtgKdrjtVdBhuG+X0IwR+NThsjDcj1IpDuPUsOHOD/n86UrtzxxTQSp2lfl9Qc/pTwccE8UDGjjv9TilA4+Un8f5U8ggHgY9fWm7APmBzj9KYw78jGe4pdxHU4HrSbjnBH5UuAeQR/UU7gL1GTjFRlNo5J+lO5U5yc07P0/HvVE2GKSD0/xpGUEbgef89acUzk/1pvzLg5I+lCJGZYdjjrip45/kKOPMjYcqe4/z3FR7sjHTPfsaRkxjj8uv/16HFNWY4trY0ILzbOpcoEbq6qd2exY+nXnnqK0re6E0ZYxSxgDPzDIYeoIyDXOK7Kcg9+o6GpLeR7eR3tWCM45RvunvweMc1zTpNfCdEKqe504YEAg59K8a8da7/bXic2kT7rSxPlgDoz/AMR/p+BrttU8UXWl6Pf3ckYEsMeFRjjDHAU++Sa8isoikRlb5mY5yep9T+NaUlbViqPQvXFyVQIPSs6S4Y9TTpizMRkfnVdgO5rW5CQCXJpwftUJ46UDnmpuaJFkOfrT1kqryKcG9aaY2XlcEVYjxVCNwauQnAxQJouBAy4/nVe3vLjSdQW4t5CkkZ3K3vVuE1V1OLCq/wDKtIO+jMprS57poOqprOjW98vBcfMPRhwa0681+FN3KyX1oXzGoWRV9Ccgn9K9K71x1I8s7GsHzRuFLSUtQWJRS0UCCiiigZ4GzRJjzFjC54YqY/15X+VWUdtgKmJ4/dyPpyMioFyY18u4BB6eYNwPtuHP4H8qcYlX5ljQNjkoTj81/qK7GcjLIDs4ZQSo6gnB/A9CPw/GrCtyXl4HdgpB/HGQf0rOiuV3FVTd/wBcJFY/ivB/SpzJtYEOwUj+KPp/wIcimSXFLOoeGRHjzwRj+fP9KdE5KnfjHQq3I+vtVNZWyBFNEzNz8+Du/FcE/kferLPht08QQ9dwY4/PHH5CkDJFB8wEEoOxU7gfqOtSgsuN6Ltz95AR+nSq2QVzgBTzncGVvx/xqTeVOEKbv97r+X9RQIt7mTtuHYqOacrhtoMg3ejjGfp/+qoIHZztcMjf7wIP8v5U51JUjAYnqh5B/pQMsSTNHkuoZf8Anoh/n3p5dcjDnBHBZSAR/vDj86pxS+QhEkbqpOMxscfkeR+GatIuQDFISvTDc/kcg0hEvEZSTGOeC4z+RAqwiq/zAhX68ciqiuYgzOjKO7REsPxHWpkdWxtO4kZyvDfl3/KpY0WVchsNhvde9P3jGC3Xgbv84qujs4KgowH8QGD+I/8A1U5clcsue3AP/wCukUi2pO3k49iMin8445HpUCsP4c8+nUClDFcOvzcfw+n0oKLSnuKCcnC8Z7io1bPIOCadnLdPy7UxikHvgcfnSY6DoR2xSg8YPzD2604/MMD7v16UAHD98MKZjHJPucdKcQfr70ZIbkVSEwDHuOaMFl/xFBwQTzj06UwZDEDscf8A6qaJEZCQcdDQp5wRx15NSKwLc9T/ADprD/8AXTEIVDcZIbrz3/xqMggH+RpxymRwV9KUfN1bOaAOP8c3ZmgsdND/AH3M0vqsa+/ux/SvPtR1RxI0cPyoOPl4rb8Q332nUr24RyyySFI2PaNeFA9up/GuOndgx4/HFCtc0adtR4v5FPX86nS/LdTzWUz84br9KjDFTwauSTFFtHQLMG71KGBwaxYbg1cS4K4GawcWjeMlY0QeKORVNLsY5NWoplbHNJXKZNGSpq7E+T1qmMNyDmrMIwQKpPQlmrD0FN1H5rfg9KWI7Vqrey7k29aqnuRPY6v4XS7PEckXy/PbN354INev15J8LrUS65cXJGRBBwfdjj+QNetA+9ZYj43YqkvdFpe9FFYGgUUUUCClpKWgZ4Oj53uCrP8AxBl2k/kKcWjODPbdejr2+h/+v+FUhcLGBi42Y423Cjj255q0oWYBhEu7/pjJjP4d67Dje4ssayOGUyHb0Dwh/wD69KsilvldQwHJUlSfw6H8cU2ULGv71W29jIv9RyKEfzM+XcTEYzs3B8fg3NMlljLMmJVZvRggP5jkVJFMY49qbCM9FO0D8OQKpebGsg3TopHZ0MZ/Ang/hirqPIpwxdyRx6n6E9fzoEyVHLZ2h07EHII/DkGlYBmUjbg91bAP4U1WJYgMu49nQo35Dg08b1jwSCO54INILEgOAOFIxjjk/wCfxoSUblUybC38LoRn6E5/LNROqgbvKK9y0ZI/xp0TEcB2YHrhf544/SgCyu+LOAQp5JKnB+nUU4u+zesYYesTjn8DUCSqrHExjHcAnn8DU4Kum6N0bP8AEpHP1FICzHJuZfnbd6NgEf1p5UFyCOR0B7/4VVO4RgEBxjgkf/qqVZH2hdu4emDx+fH8qmw7kySsWAYSIR0LfMD+XNWRJsU7tuO/PFVFkMgbCkAfwkfqM9Ker7Qp2bvcgZxQ0NMssp3BkZsf3QAR+XX8qekm88gNxzjgj8KihkiPCnY3oRtOPpUjlGOWxkeo/rSGiYEj3X0pwIzkdf1qBJMEgnnGOeanKbhvXHpgGmUmOWVW68e9TLzz0Pr1zVdcEY6sPfml8wDg4waBk4HJyMN9OtBwCQAeeo9KapAGFOV9KdycHP4g0Axh6A/kRThhxzx6GncAdPy701lOOCcenpV3FYaV6j+VAJXjqvrTicDLdOxx0oyOcHHbHY00xCAZ4AFZWv3gsdHuJVO2QjYhH948Z/AZP4Vpn5T1rhPH+oj7RbWatzGpkYZ6FuBn8AfzobEo3Zyd2Vfjjj0rGuzsG3A2nrV3zGJyB+dRyxiVeRg1i5anVyXWpiSqHO4Nz0qEgg47VpSWXOcin2+mmRgW+6K0VQSpO+pnxxsOcHmnlnBxit37Im3AXpWdeptJxwKmNS7B02kUPn9eKljkkXoahCszYJ/KnRuwYDBznFb6GDSNCG7kUjk10GnyC5QY+8Otc9GBgBuh6GtbSx5F0vJKNxUSsyo3RvAELjFZ8pJbB61qyfJbO+eg61R0uwn1bVLexh/1k8gQNj7vqT9Bk0qeiuOr2R6n8MtPFv4flvCDvupevqq8D9c122KrWFlDp1hBZW67YYUCKPYVZrllLmk2bJWVhc06m/Wl6VIxaKKKAFFFFFAHzxH5zoAZmkjHQSKshH0YHP5ipCI85ERLH/nkdufqOlUBGGYSRWkMpPR4JAp+pHIqWKadgQ8RGOBvx/Nf6iuw429S/FIsS/enRD2fBK/TJqR4hIA220m98GNz7gg1VjluhgBw394ZDY/Dr+pqWPDk7EVsn5hF1B9dp5oJZMVYId8U8Sn+LcJUIqCLYBsQ2rIeqglR/wB8k4qVZzE3Mqoc4AbK5/XrUkn7zBMYZvQn+RP+NMRH5cqE+Wu5R/BDN/7K2R/Kr1vcsFGSQRxiVShH4kkfrWdvmhO18Jg8LIox+B4NWY5WIOCu7+6Wzn88H+dDEaAKsxZo5YHPcHKH+n8qUod2W24xwdpBH41XguQV2rkAdVx0/KpPlkyIHHmHqFkKsffHSlcZMNynIlYezMQP14oEyscgAnPJUjd+XSmxiYkFw5I45AOf0H8qa+0SDciqT/z0TH5MP8KGBPmQsGjWF27jmN8fTpU2N+WV1Vh1UnIH49qqFGQgBmI7KSGA+gPP5GplkRWDSqvpuVSCPqD0/OiwkWIpHL/eA/2g24f5/GrW07QSCzDoyj+nQ1nNIEIbzUwx+UkYJ/E/41Zicg5EnJ6AdBSaKROc7Q6DOOwAI/L/AAqSKbOQ0TR989Qf61HnzATkBu/OM/5+tLuk6ZPHVWGPyOaQywBHKu7G/B6r1H4VIhKnqCPcVAsrKwL8Dp83B/A9KlDh+B8ynuP/AK1IpE4bzSVwy8dSKRvmYq/B/vDg/mP61Ai+Wf3TFeckdj+FWFm3ff49COn50DQ9dwUkc+9PU4P3c57A1BtdQcYJ9CcGnjLYzkY/vDr+P/66YXJwcng8+hpc5OFOD7iod/Z8r9eRTsno/wAwHcdR70WAkwSfQ9wDwfpTCCG4zn0PendexYevpSkArtOTkdaaYWGbycBhj3x0rxPXdT+363eXDfxzNtHoo4H6AV69rd2LDQ727P3ooWK59cYH6kV4JLIQ/J9qGVHcsNPzigzkDr+NUS5HNAcNnJ4rNxOvmSWpq26wHEly55+6g/mautOjALGPlHTFcnLcOsowcrWjb3JB4bik4tIIcsmbygFeuKpXEKyIwNFrexyvsyMdCRTrwCB9oOQeRWa3NJbGQ8DxyHAqaEBmG5OavBQ4GaesIWtVUZi6auRNaocMhPPJBPf1rT0+I7snnHpUMceSK1rKEBh7U+a5KiT3zbLBV7uwFdd8L7ey+3XMzs7X3l4jQp8qpnkg9znH4VyF5iW6jiLABVya7n4XWDPFeaxLn5m+zQr2CjBY/icD/gNEnamQo6pnowp1NzS5rnNBaWkooAcKWmg0tAC0tJS0AfNLLE+4FYnfqDxEx/EcH8QKWF5I873uUx0EiiVT/wAC6j8RQlyFBAilRfSM7l/EECp0kMhASGJx7Yjcfh/hXacT3FSSNlA/dPnpuORn2z0/CpjIkoHmW4DKfl8wbgPowww/GoGM45BdVPXfCJF/Naak0q9XRcdDFnFBJpxyIsZj2kA9AxLJ9AxyB9DUkSQLnahjbPIBA/8ArGs+G8cuSk4JHHOcH2IH9atxytyTbgHuYzvH4jg0gLXlxhOJ2VPQrwP6VA8MS4CzbCeeMYP0qVXBbKS7T7McfiCM04Osi4xFMh+95bDj8OlCCxV2yM/IUlOeF5/DFTQ3SKnly/MRzz1/IkGmtZxiQEQOrLypK4P4HGfyNNY4yCFDD+8v9aaFY0o7pFCnzsA/dycg/n0/OraySsxDSo0Z6MnDfiDkGsSGXb/ywWUHvER/KrUVyicBGC/3JEIx/MUmh3NDyXK4KxMp6jbj9MYpuSj5WJh2yh/9lPB/A0xHhCqUXaCc4Q4x/T9asecrjaSyOemQcH/PtSC1yPzVVzhYgzdixhY/mMGpIZCULYYequFOPxWkzu6vlfQHcp/A8U3coJPmMpHQ7en4jkU7hYtRsSd5LgDuCGH6c1N8xwfLjlXsVO1h/Q1TQqcuGVie+AM/iOtTJOGON0YP92RsZ/Gk0NFoM2Mox+jDGakV2K9t3ft+tU5MbcSK6ezcg/Qjn8s1IMAAmSRVx0Y7h+fWnYaLRlG9VcAZPBJ//UakPynjcAe/UY/z61XBKruALKecoRinLMhwMnGfp+lFguWomCrjP0yOlPznvg+v+eai4Jyqj6MuDTsoxxk7vxqRko3DG47x2yefwNKrbeTnZ6MKhUmLIA3KT0xUiuMExkcdRmqKuPVsD5TuXvtwalVgV4/wqsRkkqBvx06GlSQnnBUn16GpAwPiDK0fg646jfLEp9Mb8/0rxRyGYnNe1ePYjceDL4hTmLZL7jawz+ma8Qd8Zp9DSOxHNJjgGmxMhUln6+lKqh+ppTHAo5U49jSb1NbdSOSNHGUfJ9CKYGkX5cGpHtiOYW3L6HrTRLJGfnU/iKm4crJbUlZg6Hb61pTTu4DMckcVTgEU4JU7ZMdPWlMpU7G6+lG7HzWNK3myOTV2Nt2KyLdia04CPwqGjRSNCHrn9a1oGCoD7daxoCMjJ4q7JIwgKJnc3A/rVJGcm7jLfzr7U3MXLudkY9zwK9x8N28Wn6bFp0UiFLdAoUHJJ6s2e+SSfxrzzwxpAAN7JGCqr5cfucfM39PzrpPKZDGUlkURnKFTgoff1+vX2NOa5loZc9nY7oH3p1YGna6zhEvVOWAKTIuVYe+OlbgYYB3DB4BB61ztpbm3QkBpabntmlBo9AHUUmaM0CH0uabS0DPl3TNdkvhsSYCXvDIM5/3D/Q59qttKzczQxP2IA2H8uVrzqC5DnKna45rrNK8SM2ILuUo/AE+N34MO/wBa7Vqro4pI3VkGQVYKewc7W/PnP51M0zhtzrz/AHlwc/Udf1qu7vGuXhtpUPIZRtz+IyP0pUkhY7Y5pLZ+yP0P5cH8qCGWSYnAaW2Z1PR1OQD/ADH500bI+FlkiiJ6N8yfn2/EU0x3kfzhNy/34jj9KZ9ol4LRiVffCsP8/jTA0o5j5YAcuo+7tKuPwPb9Kedj4ykLHpiRRGfwOcGs1ZYXPML7z2k+Un/gXSrcUxXO7eg7ow35H1//AF0hXLwgO0bVnhJP8I3KfTjOKRhdgjbcu7dQCg/qP0qKF7fjZO0D9h2b8DV2N0dMrcI/vEeD9Rn+VJMZn75ixEsCbv7yr/8AE8/zqSIyxnIkYL6K5fH4HmrEkUEpHnIgkB+Vuh/ANz+RqGS2TzMsNx/vKef0II/KqTJasXILkscLKjt3DJhqtxSyNICnkt/uMVb8jWN5qLIoZW3DoZRn+YzVuIRypxCPocEfh1/mKloaZqmQ8Bx7/Ov8iMVGXTcASye7LkfmOn41Xt9oG1ZJFx/efcB+J7fjVholYbtkgbuYm4/EGkyh6g7cxy8dwFBpSwf5SUD9ipyf++Tg1CYyxG2ZhjuuQfyORR5d1t4udyg9JI1f9RzTQmW4W2ts84An+A/L+nFSE7VJeF0/2h8wP4j/AAqvGJ5ODtwP9jH6nIq3CwWQR53sOTjgD2poYIwOCAc+o4zUxG8ZBIH94c/p/hSSNEGAaAE4676TzoUAYQqD6g0+VgPVtiDDKc9ckjNSq29TvCN/M1AbuBvvL+a0gnhLfI0WfQ5GKXKO5bjlRiylgT2U9f8AGnupRsqRjuf8mqj3IK4+QnrknP5Uz7VOuAI8j60cozSQrJ1wG7EUjsVOHBBPAbA/Ws9JZRmR357gDgf41S1XWHgs5pJGCqi9z/SpaK6FfxN4isLXTbm1n2zLJG0b4O0AEYP868PdsErkn3PerOqapLqt4S5xEGJVR796q3nDBx6c0X6GqjYdGRyB1psscnVearpLtNWUuOoNZyNoNEKzSxkjtVuG5DsAQPoaaCkh5AzT1thuyKSkNJlo2kcse9MIw9O9UQsglO85Oe9XU/drkmoW+eTimmTJIt26YjyeCauxk9jx9Kqx8KBVyFfSiwXRetkZjgn867C28HXs0FvcG4ijSRQWjdDuT0/T6VT8I6I+oXwmkX/RYDl8/wATdlH9f/r16SBzwTmtEu5hUk76FS0t47K1jtk5SNcbu/41KVBHH5ipSvPt1z0pDGQcAfj61S0Rk97kUeYZC3ID53qDhX7c479Oa1bW/njsvOeNZRGn3Eb5k56EAc8d6zhhxgenQ0il4JBLE5VwePWs6lJSNKdRpam9Bqsd1KnkqWUr82eo9BWi5EUe9jx3x2rkAitMLi1cWt0CTx9xj/7KefpW7ZaykoMd2BBdrxsfgEeoNc8k4m8ZKRpoyuAysCD3FOrNGq2yRGTYTEDgtGv3fcj0/Or0UqSxq8bBlYZBB4NIolp2aYPenUAfCCSMpyDzV63ug2Fk69mqLUtNm06bZIUkU8rJG2VYf0+hqoDitk7GTjc7TStZ+xJ5dwJJEDDYFbG0d8HqD09uua6qK4a8thJbrDdwejqoZfY4xXltvdlOG5X+VbGn6lNZSiW3kyp4ZexHoRW0WmjBxO3FxBC+0yy2TenzBfyORVyNriUbo7qG6BHYrk/Q1l6bqQ1FAIpCzgcwSPz+BP3v5/Wpngsn5khMEh77Tg/iD/n0pvQzLbi5jOJYHI7HZ/hwf0pFnEahsXCr6xqSPxDVCltHHwl1OmemJXwf5f1p4a4XJW7ZCD/Fyc/5+lAiyLmORc+ZIwPRgCpqWK4ZCTGIp277gI3HsSBg/iKqJcXfzBrwrnuVVl/HjI/Gpklvgn7xonUf8tIx0/Lj9KQmaqy211H5VxFJCzD7kqgo30PINO/s4bcxqGXHy7Cc/ln+tZsNxKM4ukkU9QSD/wDWNW1MTZZrc57+Vlfxx0/KlsUL5UwG1Scj+GQEj+VMEMhYt5KxyKclo2xn+Y/MVMpG5k/0lV9JOR+f+BpjKVJPmXPHZW3Y/Pn9TVoTRPHIhYEbie+TnP4j+tXI2Q4AR8g8YUgj24/wrJE7bsxRCQDkhcBx9VNW4p2kwE3Nn+FlBH4c/wAjSYRLpmYElpJQM4CyJkZ9m61ZijwC0wwT1UtnPv7U2P8AcxDcRux/DnA/Oo5JeeTz2pFJF1ZC6qAMew7Uy0fDMxwCcnJ9zVaGUhpMdMd6datjdyc4HNUgH3N4schAXLe/amySbyPQc4qrdczEeppWbL7aE2OxIWLHGaeD5aDB5PrTVAXgnpTN7SvhFZiegAzRcYpYu2DyOwx1q9b2vlAyTHJI+7n+dRW0tjbcyXMZm6cchfx6VaeRWXdncp6MD1ouBBd3BSJmAwADgV5j411lyhtUkPzHLgdvau41y/SC1ZgeFHU14/rrH7Wqkkk/Mc1LZpBFO2JL5NWZcMpFVoeBUpOelYyep0xj7pUbKt+NL5hAwRTpF5PrUeCOKaZny2Jo5NpJzVyO5OeazgM9uamQOOgpuKKTaNPzQ/XHNPjADZxVJGbjirsCu2MAU0hNtlyJSSMV0vh3w5d61NmNfKtlYCSdhwPUL6mse1gRF3zH5VGTXs/huNE8O2sYQBQD90Y5JyaSsyZ3RY0+1t9PtI7S3j2wjoT/ABH1J9TVsRjkg/Q0rRnPDde+Ov1pqg5HOD78g1ojHqG0g5xg+/ejHGA3A7VJkHg7h6Y5prrjPUZ70yRu0YIB5HUHvTBwCrDipMgNjofWkGQOn5d6aAiaMMMjt3HWmsyyIsdwN6L91h1X6H+h4qbb3U8/rTSFOFbgn9aTSe41JrYWGZrJkeQma0ByzKOfow/yK6a2likiXysbNoK7emO1cshlhbdHn6e3pUtsEaUG3fyHzkx5IRjnPH92sJ02tjaFRN6nWDmlrPttUjZhDdqYLj0YcH3B7itDaaxNj5Rks7eeIo9qdpHzAMJQfwGCPwrldW0OSyzNCd9uT2PK/XvXZmG4HU+YPVx/UHihpHj5ngZwRjJG7P8AwIdfxFdbimjkU2meaVNDO0TZB47g10mq6DbXG6bTd6Snk274wf8AdI4/A1y7o0blWUqwOCCMEGsnozZNSNi2uTuWSJyrg54PIrq9I1m2mPlXYEUp/wCWgJCMfcdAfevPo5GQ5BrQguQ/DcN61rGSe5lOB6b5KAnNu6hhyUbr9VPBFJ9nRQPILIT2GcH8K5XS9fltUFtclnt+2Dyn0rp455zCs1tqRaA93QsB7EgZFW0Yajw1ypAMFu+P74Kn8wQKAEyGdZLaQd42K/0x+YoW5kkwHuLeTttSYHP4GnBmyBCnzd0HH/jp/oaAY87yNwuLdx6yxgH8TxUq+eoQNgY6lG3I34Mf5GoN08WRLbAL6xsAR+HQ0kU1vG37sL9Gyv54yKGgsaMM5GVBkI9B8w/AcEfgTV2O4Z+Fkyf7r84+meazVvIwcFI9vQ7CWH59BUguBKu3AZT0G4ZH4HigLmhLmTAaBJj2BbDD8eDViyQqnmHzVBGBG5B2++ep/OoLWBXh3SoGjHTOeT9Dn9DVyZyqD2ApFRQry5zUJbLAd80wP5g3L19KYrAygdx1pdB2LcLZ3ke4p1pkbh9KgtW3LnvT7c4L5PSgbQp2vcEjJK8mmg8lj+FPyEDnuxyarSS5YIgySccU0A95ipCpy7cVDeajO0It/PZkH3gMDP6dKdKRChAOXbhm9R6CqDI27LA1MmVFDQxP4Ug1GeymXyWyufmQ9D/hTiQB0qkx8ybnoOTUcxdhniO8+0mFYTiNVDsCOdx6DH4V5/qyk6icnOFHeuzuG3F+WHJGM46/5/IVymqx41DoMFB06d+ntSbNIxM9QB9KOexqUpgf0qIntWTZ02GnBpNppT+lAzmqBocqVMqj8aYKkU89KEyGieNfatCAqnNZyyAc0PcHbgGtIomTSRtQu2o6hbWUYJV5F3YHXnNe9adALayhhBIKr0NeT/DnQzPcG/nBGBiIEdeeT/n3r14kFgO56e9W0krI55SctyTPtz3BppUdBn2B60bt42kEEdu4p4wMk/iaSJsR7QP4uP5UoYjgg4A7CnlRvGRj6U1lBycce3anclhtGBjkZ6Cmjk4xjJpBkdCARkYB6+9SAKwIOBnuKoaI+vBHA6f/AFqCoIweh70pRlzkFvQmgew/AimSMZWXjnAHNMKBjwee1TEMRgE8nigxk8jGe/vTAhLBwEuCzKOAw6ge3+FaUL3ccQW3uhJEPulxyPbrVEKT261H5fpnFZTpqRrGo1ueDjTJPvRTvtPTcQw/MUot7+LJjZXTvt/xHI/GqiCBmzHcRsx7N+7c/nw1TsIkZfMaeJscEjP5HrVGLWo97i42bZkjIHd4gxH4gVn6npkGqxhwkcdwBw8R+8f9oHmtJbjGG84up75zn8ad/okmDIhjY9yOv4ih67i5mtjzy7sriym8q4iKNjIz0I9QahVyD1r0a402yvYvKbfKD2AyVPrnqK4zVdDutMYs0bm3JwshX+foaycbG8Zp7leG7K/K/K+vpWzp2rT6fJ5kEhKMMMpPDD0Nc2CRU8MxQ8dO4NVGdtwnHQ9P0+8sdWiDRkiYfehkXfx6g9cfjVzyQq7FTK9kEoYH6ZrzS2uWSRZYWKupzx1FdhpXiCK7Ahuyscp6MVBVz7+h96132MJRsbHlyRsMO0PbbIpwfwP9DTjAz4LRQyns0T4b8uDQXVPk8/y+2x+B+BxinCJWXZiBj1wzc/y/lQSImyJwCZomPTzFAB/Gr9pG9xcIj28PljlnGCcenbn8Ko/ZnCjaZFycBS29G9hz/X8K3rCzFjbEYAlc5bHb2oETyNhdq/LgYUDsPSlvCQ+OwqCVh5i4P8Qqa/8AvE+gqbmpWtmyzp0JpAdtyEbr0OajgYmbPeluGAkRxyQanoUT2LHcc+venRPiSQd+OtV7J8XFwvof/wBVOib/AEqcnorZJP5/1qk9BMszvsUADLE4UDqTTY08kEk5cj5j6ewpRhcyt94jj2FPjQyMC3TvQAiQlsu/4VG8O7kdDV4gY4GFHYUxgMEmpaKMe5TYrdgPWsxgY4iT95ufwrauo/MKRj+I5PsKz7mIs7HsKhopMx35kyRnBBIHfHNZHiSz8pLC8Aws0ZRvZlP+B/SugjhzMRjI9ao+K4x/YcZHBiuVP0DKR/hSNYvU48t8oqNue3NOLDb9KYvDYNRY6LjMEYpwqUrkADpS7OMetK42NFOpRH2p23HAq0S0MOe9bOgaHNrF6qDhMbiT2HrVWxsGuJFO0sScKo/iNeseH9EWxgWIKDKSDKfX6ewraJzVH0NzQLOKxszHGMCNQqmtpCSmBzjqM/lVYoIkCAD1P9KLeQrdSZOVbA+nFVYyuXVxjocdRntThzznPrxTM46cH9DT8t1HBx0Pf6Gs2A8dTjHuKcABnGevIqMEt8v3WHb1pykswBG1h70AxTjkgnJ9utRsDnPOfWpR79fSjgg4/KmmBFvZRyePfpQVUng7SO+aUjOSBj1zTPm6gjrzVpksXGCSOPfNKSOBjv3oBI4bGR68UvKjI5B60ALgEc9O4phXnp+tPU53dM+velIBOadwsfN5lYja8a/RkHP1Bp6yPDlViMY67edv5HOKf5t9ty62txH/AHlIYfoc0wMpXctqq46mCRgF/DnH4ipJe4/7Zb7v38bRuf4oxtz/AENSLPp5/wCW91GT1Ij6/UZqES7V+Ux7fRxnP9KcGD/eEIz6cCmJltXgwCsscyD1YIR+ParKqkiMgvNqOMNFL84I+vINZ4t4G+8ig+ocfpR5FsM/vWIz2U8UWAxdV8JzR77iwaOeMcmJOGH0B5P4VzHINekRbGxsfcB/eNUNW8Ox36tcRBobj1OGR/qw71nKBpGr/McXHJgg5wauxThiAeGzVO4tprSdoZ42jkXqrCkR8cHpRGVjSUbnY6RrwtysF/ELi3HA3feQexrpQ2nyKrxpKsTfdeN8qfoex9jivNYZsYDHI9fSvRvBGjXSQtqM7MtvIP3URPEn+0R6elaJpmE4HQaXp32RTcyyNIzDMQdNrKPU+9ahPHHpyahnYjGWyc81MQfLBBzkVIraFCUhWDZ6EVcvG37lHVKz7oFgfQVZeXc0b4yssYJ/kaVyitbkfaBgcZousLIQOp5ohIE5x03Diorx905HfNK+hQlq5F1MRk7kX8+Qf5Cr8aiNck/MTub61VtIjCrO/wB89B6VajQuctwvqaY0OjQzOTyFHerq4QBVH/16jV1wAnQU8dc1SAkPao3bP0FKTgVGxycd6TBEDLlmc9cYFU2UMxPUD9auXBCx474qtGNzBR3qbDRWjttoZyOWPWsTxYhXQZiM8SRnj/e/+vXYyRAR47AYFcp4xZYvD8yk8u6KPruz/Sk1ZmkXqeds3IAFOTlhzTDjoOTSxjnNQzfqWFZcetO69TxRb28txMkUMbSSseEUZJrrtN8GMQJNRkx/0xiP82/w/OhRuOU0jlUV5G2IhZj0AGSfwrSh0S7eSMSQlAx4U/eP4V3CWdtp0OILdEzgAIOWJ6DPc01xHD8gwbhv9c47eiD6d6pIy9qW/CujWkDGYtuuk/hI+6Pb+RNdtYW4jyxGM9q4S2eQSK0TFCDkMOorvtMuReadHMMBuVcAfxDrWkTFj5DlwT3qpbFmXLHJYllJ7c1am5DkelZksuJo1QkCMcehqybGvFMHbYx+bsfX2qZiBjJGM9T2/Gs2NhJtkUEHOMdwfStCKQSHcSM9Dxzn61MkK5MCrrzjcOh6Yp2ATh8kjoe4qAhkO4fd9MZqRXDrwBkDv/jUW7DFyVxuPPQOP608HkDgN6HvTQTuIJwO3vSlQflIGD27UwHDDcEnPb2/CmlFbHy4Ydh/SkJZfvAsv94dV+tO5GAxz3HuKaBkZGM5H4+lKBg4A+vNTEAjJPbGfWmFAc7c5649/aquKwmBwenuKOBwwGaTlehI/kafn2/WlYo+a1cOpaLa5HUoMMPr3NO852xiRiw6bhz+dDxJLgwyx7h042t/n8aGa8Q7SokYdnX5v/r0GT7h57qcywFx6rjNODWkhIWP5j1A+U/lUX29hw8QU+hHSg3yNjfDGw7UxMmEUJbEbOpz904qRAVbghz9cEVEt3aMAHhR19HXkfiOakW4sMYIcL6Kc4/A/wCNArMnYkMDKjhh91hkEfjUsTyK+UnAPqPlb8ccN+IpkU1mw/cXo943U8/gf6VIqQTDGxM92hOfzU80BYW/sotTtxFfIMj/AFcyqAy/THH4VxOqaNcaVKBLh4n/ANXKvRv8DXcR27xEiKeSI9xtyjf0/Ortrp099L9nniQ27j97Iv3SvupyM/SplG5cJtHMeCfDH9rXH229UjT4mxg8ec/90e3r+VerPOFUKqgDGAMdB9Kghhtre1htraIRQRAJGo7Cn5G7aQMe3ehKwSk2ROwLZ7VdjG+DYPvelUZjlhxgCrG9oYlcc8UC6FS5QnKYx/WpFXNlHxyhx+BqzKEnhLAfMRzioolPkSIOu3t6jmixVynHxLjvuHNQQDzrx5uCiMdoz1NSBwJSRzg0afGPsqAjJIycjueTU9LFIuqEIAGVbPcZqNzIxPzhgOwqZeB26Ui2xlcnpnuO1IERx3AXjBB9KuJJvFMFpjAJD/XrUgi67DnplTwaaYATSJyxPpUcrbTtIIPpUigpEB3PWmmCKtyxLe1NgHO8jjoPrST/ADSBev0q0sYMJVvu+3H40SBCC5Lx7SnfA561w3j275s7IEbiTM2PyH/s1dsYWPJkLHHBbtXket3zar4huZo90il/KhC85UcDH16/jU2NIblXjt6c1v6H4WvNV2zMDb2h6SMOWH+yO/16VueGvBRAS81aIF+sdseQPdvX6V3aRhMD+VEYFzqae6ZGm6La6VB5drFs3feduXf6n+lXmhwpOPwq55Z5Y1BdTRW0eXYZI4UdT9BVNGO+5kX0jWs6SgjftIhX/aPBb8B09z7VSgtz1brVry3uJjPL1P3R6D0qURlaQx8ahBgdK6jw5IGsLiMH5llzj6gY/ka5YfpVvT7qa3u1eBgp6MD0I9DREGdTezCK2dz6gfU1hozPNvJ4Jqe+1GO7tTGAUkDg7eoYdOD+NQWwyCccCtSTTWTyiHH3MfNjv/8AXq6jKdrcNE45IrOXlcngCnWlwUuHRs+W2MD09TTJNlXZflZcqONwOaewP3xyPrUCguucjcB1HQj1p6ylGwSce9ZtW2GTo4IwehPT0NOOCpyCV9QORUWSwDLyO9OVumQPwpDHkEEAHK9m/wAaUYX5eNpPQHj8KaCQccc9s0pHGRyp7UXAdyBxkgdvSl4GMZwe+OlIOQNvOBwM8igZ7dT1HrQMXA53de/v9aQxPn5Scdvk3frTgd3Tr6Ghoi2CMdPWhsD5iZcNhkMT91YfKaeDdRIDtDR9gfmX8+1VLLVUnAhu9u7tIe/1NX2iEDZTd9BVES0eon9oKBi4tfwPIP49RTlm0qf/AJ6wMexAZT+PWiO7iwRJg+oYU8waZdDhxC/+9ikSIbe2xlX3KfQZzTPIthyHZT3DIeal/sgrgwXkbjrgkA/nnFNawvVXepLgd9vX8RxTB3QCOBjgCNuO/BqdY4sYd3Zeysu4D6Ec1U/0n7rQA/7y1IGkj5YFB32H+hpk6mhBab2QQEvuIULuOeewb+hxXc6fp8em6cEDFiTlmJ6n/CsPw1YlFS9mZi0vEQPGFPfHv/nrXVzcRkEUAjOySwP5CnSEhgAOO5pjj5gM80+Zf3agE++DSKSI5yTgkcCrUYMlpycmqJZcbcng96t2ciFNrDAHrSH0I7aTY5QkZPSrCjaSPUYqC6td371D/wDXqBLgxRuz9hnmi47GQ8+El+baORnHTPFascyLCJJWCIBgMxxnjFcfPqRh8sxkbmfcAe4FXYXkuZlubpzIf4Qe30Haob1LSOntrmGecRRiQk/xFeDV5SqcFhn0zWJBqEiMmxAEB+bHUirckh3Hy32nAKk96TEkaAwSTjj17VIpO3GAw7H/AOvVOOTzRvCD3Yd/XFWg525A/KmhsDhuM7h/tdRTXYAH1pu4ZOD+NRbt7MB1qhCRoWZn/D8aecheTzRGdnyjII65704IZSSThf71DCJlaul/c2L22nr/AKRP+68wnCxqfvMT9On1pfDvhKy8PgP/AK+7IwZ3H3fZR2/nWlNf2tl8hfkdFAyTVKTX3YbYYB9Xb+gqS0b+0L1PQVVn1S0iBAkDMOyfN/8AWrBlkubzHnOSufuDgZ+lSxWZOOy9au5KRZk1O5uDtiHlL6jk/nTYrbku5LMepPJNTRxonyqMD1qZQPwpXBIFiAGTQU5wKkz60cKMk/jRYZWkQKMHrUyKIYQw++3T2qOMedNuP3R0zT2bc2cfhVJAJkYx/FWjZjCZqlFEXfdjrWgGEEY4LE/dUHr/APWp3ET/ADbcscCo2u4lIAXzCDxj/Golt5rj57huf4VH3QKu29lGjAkZPr6U7iaNG1kHygjbuH3D2PerDABiOp9+M1VDRgcMqv1yOxqysokVeB6c/wCNTISAMRkgd84IqUYcgjg/zqMc5HQ56HrQV2t39wakZKrkcEjPv3p6kqTnj+lRbg3Dc/XqDTgGj7ZQdDTsBMCD06+1OxnqPwqFZPYj6VKMkDBz9akYu1T1P0PoadgjsGzzmkHzde/alyfQ0MZ8aRy4wDW1Yap5YEc+Wi6Bh1X/AOt7VRvtORF823ckdSjDkfT1qikhU1Kk0XKNzsNqyqCVR1P3WHekNnan78rxn86wrK/eD5cb4m+9GT+orYhia7TdbMJU/uk/Mvsa03MHGxYWxjLARX0JJ6bvlqVLO+gYmFsnu1vJyfqAefyqg9rMhw8TAjrkUqqUALA8dD/9egUjRa5vCMSMJwOok4YVpaHbjUr0o9vthjG52DHHsMc9ayIppHdUTMrEgAMMnPYV32n2YsrFYVA8wjc5Hdu9U2SicyAXCdgvQVthluINx5+lc7MpiJJOWq5p+oGNgjn5CaUZIbVx8sDBiRn2FNj86MYIyD2q7KA/7xDuQjqKrlwOd4+hNNoaK8uD96PHvimwAbmjOcGrBZ8Eghs1WMm19zKA3ripGiOS4ktWwQxj7VjeINWS10qWUDDP8oHqTV3Vr0RKXlkVIlGck4ArzXWdTk1a83gssCcRof5n3qW7Fwi2XNLEl7dedMcqOx/kK66EbivHB7Vwun3jRskQO05rsbW4MaBidz44qG9S2rHQJHtjAA59qbvugoj3LsHRSgOKy49QuN3Az6itGC5Wdc5we49KbaIsydZbpf8Altj6KKcs92zBftLYPoo/wqMhieTxU0K9WPPpQkCLin5etLbpnc2KjQ5zj8KsZ8tAB1/nViFbYgy/I7L61WuJ2ZWY5RAOi1MR/E3JPrVWeQOwA6D070mOJlNBJPKWx155q1HaKmP51ajQswHUngAd6ufZRF8kowQfvD+VJFbFNYnXAQZ55z6VYIK/KP8A9dO8soctgg8ZFLtOepYfyqkhNiAdP1pwzR9DSc54qrAPB7kVFMxc7BnA60856UsEY8wDPWgB6RlIdoHzEc+1Pig4y3T+dTBADkmhnAyScKOppMLD1AVSQM+g9akjKId7nczdwOntWcZ5HJJ+QdgOT+NTLHII9zfIndpGwPxpiRfFycgKMD3p0bSSdSze3pVaAb23JGzgfxN8q/4mrgJ244IHYcKKlsaRLGpwOQoHXHNX4Qv2coMgYyD71nrnjJz6cVehOEb6GmmKSJVIJwWBz2I6U4EdsED+6c4qFWztJxzxmnYBwSgV89aTEiUqCCAc+2OtKkhTaPmIHYimDJxjOfbofanj5hgEj6jpTAlChsvGRnuAf0oSUh9pyDmoV3I4wP061MhSYYOA1AE4O48HBP60F2U4KAn1qEEpgSdOxqcF8fLyOxqWUfLjraE5TzEPo2CD+NULzR/OUvao2/uoHB/D1q8kTxP5kXXHHPSt2wu1d0BXzLgDKsxzjjk89DXFisT7FJNHbg8F7e8k9jzxlkt5milRkdDhlYYIPoat2d7LazLNC5Rx0Irf8R6el3qO+H5mlAO7uW75/nXKujwSFWGD/OtaNVSipLqjKtScJOL6M7K21u7u48JMrsOsMqgn/gJ6/hSfaZmyxSJm7jG0/mK5WKYqwZWII7jtXQWOoLeMkM2BOx2qxHDH3x3966Yu6OSUex1Hhq0FxM17IhAiO1M/3sdR9B/P2ro5pZQNsYP4VXtI0tLWO3jH3Rj6nvUpuZIs5Qkdqe5KKxSZixOSakjil4yOacb48DYMZpUvdx5QZqbDuaWnyyxsQfxzVy6gikG9wF9WH9ao2UwmfauCwGcVbklnUZQLnpg1aEzOkj8piHUg9iD1HsapXVw9upkJbywMsXGcCrUl7JDIwMLJ3MTcqR/eQ/zFcNr/AIql1aaSzgi8m1VirtnJkwf0FTNpLUqnFydkYt7e3Wq3LyXDsIyxKRjoo7fpUQtlqaNenFaVlZfaXMYkiRwM4cnn16A/WuaUmzuSjFWMhrLOCpII6H0rY0e9Yv8AZ7nh8cE96m1rT5NAaNLt7Znk5CwTCQ4xkEj096wZNQRmUhOQcg5pxUrkzcGtz0SytwUZyOvCioXhlhmOAeeeKraHrSalEFUYkUfMo7e49q3AfmyRn19q1ascvNcitjIygP09xV8fKmKroQSTxjtj+dXLdd2HKkjsPWqSAdECu0kYz2p7N83Jx/Sq84Z5GBVsHgFR09qeitHGpLEYGPm/rSAWZiFIUnJ/SoVUgZ7U/Bc5bmgrnjOB39qYIuWcX+jtOD8xOF9gKnLCVPM43bfmHv8ASq2nSkNLAR8rLuHsalU4BA6mjYGKflAwMqeqmmCNlG5CTjqp6inkEjnOQKsFBtTn5gowfX61SApgk8dfY0uw55/LPSpSu5mZMB+4qM4KnIw49f5UwGMQBU1oQWLHHSqbk4YZpBIVQYOMd6ANKR9oJJ/OqLypK3zuVjB4UdW96otdy3shWI4gHV/7309qnWEBRyWJ7igC/FcBV2xKsY9SMn8qsRBW+f5pJAeGl5x9B0H4VTt4uQMH8a14ICwVRzj+dRJlpDkMrctsPsasqpAx5Y5qRLVh1UKvqeOKk3RrnG6Rv9gcD8TUNl2GKG3AADAqbhY2zyccjGcVGXlZcALEvfHJP40B0T5S2D6Z5q0RIjEiqM4LY6rjrVlZI5AQDnv1qF0DYYH5h6nr+NMDHfjA46cdR6Gq3Mti4Cu/owYHrTwCWBB59DVcMx5xkDjj0pc98nP86dhljILBWzz+lKQc5ycdcjtTSVYDqe9KGZHA2kr3xSFYsrICAsg4Pf1pTCxOVYYqFdp5TpnOKkDsvH9DSZR8xW9jcXUjLDKuwHktn9BVy1jksZZQytlGJMg5Q47ioTNHGFMe5HJAUJ13fXtVi5mkigFvOxDn5iyjhvY+vNePzSryUZ9fwR7zisJByi9t/Mgmklkaa7R/3kh2qBxhcfp2FUjZzagfJ8oEnoemPfNXbbYZP3wDog5XJBzWpuga1YWuFkQfOhGPfj1rorYiNBckVqcWHwssTL2k3ocTqWnS6XfS27Hd5bFd4HBq54ecNrVpuxw+fyBIrY1B0vYY5ZTGXfKvjqcYwSPXrWXbWLWWpW9zE6vEHG4A8rnjkeldFNtwuctVKM3HsehpcMcFTzVqHVlQBJ4+PWsSC428nkVoOAUD8PEw6jtW0XdHPKNmbKmyuvuOoPoaZJp7cmPBHsaxBEpXMbYPpUizXEB6tj2NVzC5TRjWW3lV1yrA1tW9w8wO6NgfXH9awLfVnyFldsdK14rhJQNku4ntmqjqJl6SBZUwwXHvzXmXiLw/YaM2+1uHkaSXmNsYUEdu/X1r0NzLHwM8joOc1V1HRk1izMVzGkcn8EkiBmU+o7/rRKPMtR05OLueW3Ur2doBGQJZh1/uLn+Z/l9ay4Lua3mWRHYOpBznuOldBrWmzQXz2bMDMECHYOGI5H045rnZ0Fu2w8n1FYOFlY25lJ3Lk1u93cLJaQvJ9pbmONSxEncADnB7fj6VBd6ddWFybe9he3l2htjjnB6Vp+Gb3+zrr7Y8jxRx/N5kZ5UjlcDvzgY96gubqbVtTnv7pt8srliT2HYD2FHPYqEFJkWnmezuUuIN2V9e47ivRbS/W8hVowQCMnPXHpXDj7vGKtWV3JZyhkb5c/Mp71Mat3qVUoaXid5CvmuBztHUiryuy5UDBPbtVDTrlJrZJImODzz39ea0Ixvyzfp2rbY5rW3JtuIuvOKrkbjznb71KzkLt7dzUZPbNNCEJCipUVQuG4J6mmIpZtxGUXr9aVtjDhucd6qw0MYeRcRuG4Jxk+/FTBW81SUcOO/Y/Q1TlBdcE5psMbK6r5jhSegY1LQzX2s2P6VMw9R+tYhilWTHnSZ6feNWrOaVVkjkkZz1BY5NMRefHJJ+h9KqXDoSA3D4G1hTZLrbxxz61XZy6gk5x60XGhCxVSp6Hv2xVAXJvWMVupdM4JA4NX2t0njZLjJhI5QHG76+1TRusKCOKNUQDAVRgCmBHb2U+ArhFHuavx2cIYFnb8KrxyMzYqxtZxhOP60mxpGhb/Z0PCAnPc5rTjmkK/KoA9qxIIpFcLjv3rdtkYqPlNYSZtFC7QfmfJJ9aeOmBx9Km8p2OSKftSBd8jDNJalFZ1EMTTSEAAcD1rIMzOCzY3n5sg+//wCqrV7eC5cocBF4UNxk+tVAkfB3ngZA6/l3rogjmm7vQtwzBlUuQufulTwamdS3RsDHBC96zgPLQhWcr2x2q3FP8oOTnjqMU2iEORmR924cjOOmfwqxHIGDbWB74zUBJcEYAZT9c/hTeI3VghBz2HWmO5dXp8vHcY5xUyvlRkj6+tU1YFj8uG/LNSK5Rsfwt2I6GlYLlnkEFW5B5BqUMmPmbn6VAjBhxjpyAetPBG0c9qllHy3BeKkJILqd37sdcHPJ/Krv26eXAkl3DHRvX1rOigMsgCgYHU9h9aupABIAHMgHUgY/KuGFlqt/0NalR/CnoOlnbYyqMZGN47eozU9tMEAxlsA4B9fWm7bkPtEJAYfKAuQR7Vb/ALKYW7ytNGrIMsifMR+FaSVNyTm9TShUr04Wp7FQyK52zjLf3x1/Ed6j8sA5WUEDp2qTz0HySqrLnhsfyNOVYG4LsPQlf511pKxw3SNG2mLxhgfmA+Yf1rTtLtoTxyn8S1gxxvE+6PazD04J/CtC1Z7iVY1QpKRna3GfoazkuV6GsZX3N4wpOPNtm69qZHcsp2TDpxVOMXFvPhUcP/dAzmtAyo+1niAk7g9vrQncHoTfZIplDhgo9T/hTooYrd1OZX59do/Tmq5kkVtxIzmrQdWUMOaq/Ym1jVt7h2ymQo6DFXYnTb6kViRkk5DflVpZQnf8qtSYmkY/jm1QWkOoD5SJBG7r1XP3T+B/nXn+p2LW+yaYKgc/KVOQwHU/yr1O5kS8t3tprZLiFh8yOMg4rjvE3h8S2bTWwdTFysW8suO4Gameq0Kg0nZnFlzLgciMH5V9/WrcTY+lVUxgHtUqnFcjO+KSWhoI3TP4VOEzzVKJ+Ac4FW43J9frU9TROxpaZqUunTYyWhJ+ZT2rubO9iuYRJE5IPb0rznHGa6Hwnb3d3fSpCwECJmRm6An7oHuf8a6KUm3ZnNXgrXOqLE9PzoyTwOp6D1p/kywjbKmD6jp+dSWqBnLkZUcD610JHISpHsQJk47/AFqtMhVun4irbBxyGyO/tUMh3DmkSmVsGmscEEdqeThgppkgxg0iySU/NnPOKrSXKwlJGOMsFP48VI7napAJPoOTWbNpmo6jcKPLEEAP3pWwT77Rz+dMC00kpndIwyuTyR6fX0q1FD5YyTukPfsPoKt29gkMYVpCfU9z+NWRDAv8GfqaOUbM0gt71KkEj8BG9MgVpBgg+VFH0FBmI6tQLUhhsZM58pqnFtOpyEx+IqI3RHRiT7VG1xM/T5R6mobLRsWqXAA3IPTJIrSW9it0/eTpn+6pya5VYZJj+8lkIPUBq0bWK3hU4jGT696hq5adjSk1hpPltomY+pFUZrh96idyZWP4L7e31qWa6WCEsAFB4AHG4+lZCyiZizM6SE8/X8KuCRE5Ms5Pl8CQEdiM5/xoUxFAGEWB1BG368VHHKDGSrOOeR1we/8An3p+5zyPLcnoT8pP9K0MupLG67XXZ06ENUiykqxRsD0Hb1qv5qxyKDHsPp608OFfBKnnoRzTEmWo5C4ydjAjBp2CUKA8ds/yqshGSuR8p9eo7Gp+2Spy3BwfypXAeCcowBxjB74qdZMrg9e4HGDVXAC5wcE8g09ZAWXaRk8YB7/SgC4jgMGA6jPP61MkzbRtwB2FVYnBHHBz06c1MEGPvMvtmkyj5liXyohGG+duSKiaVyQqAk9RjvUJk3Nz1NWIyEZD7V5ydtUU7XLNpdSyW7CWULChzuJ5z6Vp2t3BHMtwybWA2mQ/NgfSsHdv2xrwi8/j61biuNsPlFVdMkjPBHuDSdB1ZJvQ7aGMdKMotXJ541BYxHzI8n5kPP4iov3iqcfOvt1pYrhIzh4wynv0I/GpFnUNwAx9fWvQRwNu9yJJmwEZjt7Z7Vo6cl7LfQxW8pZy3ygtxjufaq8SNdzrFbwiSRjwnf8AOu70XSV0y0ySr3D/AH2Xoo/uiqtoTcy2nlido5GcOpwQT0pokwM5596u6xAglFyOC5w49eODWVu5rF6M1WxbSY7sk5FW45s8ZArNVsGpQTnIppg4mtbSgtsPHvWksAI3FlI+tc4CS2cnmrcTN0MrY9qpMmSNzaq4G4fQVSvArKVJ4IxiokkOMA4HqTTZHBXaOc9vWrROh5vrFkbK/cgYRzkAVQBrrPFSQpbiSeRI3/gT+I/hXHhtygiuSorM7aTdtS0knqSTVqGQ8Vmg81ZjkIxUWNkzYRwFyTgelem+G7EabosMbKBNKPNl/wB49B+AwK810SEX2rWluRlWkBf/AHRyf5V6qkm47uldGHXU5cTJ7F4AHg81G9tHsIA2j0FRwygy4zU0rYzXQcrKZjcA7Du9qi8uUfMYnAPqKvKpXHHU1OCCoFFgMGbB6DkUoVZEUuePQdTUmtFYZbZv4ZCVPtinmJJFBjYEUmVcWNkUYjAX2p3mYcA1TkUocHg0qOTgnsfzpIdjQZ8AZoV8gscYHapTEJowy9h+VVpEYZAGBVASGUyEk8D2ppjRhln4qJSWH+eBUqDcQB196Vhj1gjJycYHf0puWLgL096mVRuKKwA6nPep3iTcCuBx270gRFHh+P4Qeo71ciUBSzcAc8+lQRQLvBQ/L6Co9VmUQNbK7KSAWYA+vTNTbWw7kF3cC5lVlf5BkKB6/XNVlkkTOV3qDnOOR+VMIzHvALcZ3Lz9Qafw0gKPhscZHX2960Wxl1LMUmd+1QVY7g3P69amjZSwYbtueqsKpoZBIxBA+XOFOKlRny2UdTn7woAtMm9igUMpH3WHAodpQR+7HI6Go9zbQTjcO54z/SpZN5iIzkehOCPx/wAaAHKxLjG054I6ZB9qeBIqkgkdiAcVWBl2qWAIxz35/Cnq+4dSG74PWgC6ryHOAwJ6jHGf/r09l8z51PJ6jpVaMndkOOB681Ij8F+OD6/yoAnLnfkjr39DU8bEoPl/Sq42ynPIJ44PX0oWMY+YAnualhqfMqRyCXYUYNnGCORWo9m6nyguXzhsnp+NZtvqsiDDHcOwbt9D1rRjuoZxhW8pnOW3nOfxrinBrY3uluWLa3CQS5RWKkAOnK85zk/ypALKfqskLjrtO4fl1qxczpa2qQRtkE5JH8f+eazvMzzz9fSqoSclqFSFm0iaS1aI7kkEsZ6MP6inpbib7q/MPTvTIZGJ2E5VuhHat/wzpc0+o/apQ4ghGckffbsPfHX8q6o2MX5mrpOlpp1mJZhi6kX5jjlR2X/H/wCtW8k4khAXrjjmqt1GrqVPXtVCWR44VjQnIPUGk3YFqXb6ZHtZYVT7y4JrnjGV4I5U81rQyFwATnPaq10yhyFAz6gVEty4uxRBxUyMD3qJwdpPQ1ArSVBRoBwO9O+0qmNzAAepxXN6kuoNkw3Lhe6Lx+tc5L5m4iTcW77jzTUhqNz0CbxBp9uCZbpWYfwRfMf8Kx73xhcyKUsIxbp/z0bDP+HYVyme9Ac9D+NJzZoqcUWZ2e4dpJXaSRuSzHJNVYzscqelSq2etRyL3HWs9eppsS574p6vg8/lUSNuWnZwaLDbOx8FJv1CafH+ri2j6sf8Aa7+KTaBkV574MmKC7AJySp4/Gu4imJHzbvrgV009EctbWZcMm2QEcEHpmrnnLKynkHHNZhkwRkn/vmrEZHHz849K1MWXyc/MPSnKxGM1Wzg7N/5UhOG+9z9OtMB2oRJcLDDJ0fcdw6qexFYjx3FhL5Uoyc4Vl5DfSte4bcVkDAiLCn2Oef6VZZFl2zDnIwceooYNFG2DyLsnRyp7EfrUc8Zhk8sjpWrariQAd6ynkE9zdMe8rAfhxSaHc0LSUPCozjHWrDxrIMDH41jROYzjOOa04pPMQAH/wCvQOw37MUbCjK/zNKsZyVx161MJv4ep9u9PJKcYyzfpQxoVUVYwp/M96EXPCjAH6DNO3bhgenNSouMsTgYyc9qhsa2GzSra2xfjdjCA9z1rBEztIzOFyw5Zc5J756ik1C7N7cBkJMScR4PX1IqCN3WQ4PUdQvcetVFESdywhV425KOv8Tf4ihhIULK6My4YEnORUe4ksVUkH+JTgg/j1pgcBRuRzgc5TkDNMRacvE/zgleMEHjBp0bEOAkkgPQDPB+lQM+YkUENHjA3DkU6NgVLbV3D1P9eD+dAFyGYyoyhxjPIZehqzvDxIRIhKjGCdrAjtWYjkvIk0Z+XkEN29jVuJw4yWYgnPIwc/yoBFgKvksSf+BD+tR9CpUHB+Xgng0sco3NxwOp9M+3anlmDOAAvPr1/EUAELlgQd3y859PpVkZ2yAKG7gdzVYFzJk5BIx14NTIX3blf6A96AHRyArkoOozVovLnqtVwdxYHA3Dgjr+P+f5075SBmQZAwflqWB8xyWhGSjAgdjUSu8Zxz+NWHIYhAeO5qzlY438yIPGwAwRyD2we1cUZySOhSb3I7fUHRQhO5f7rcitCKWKcDyhtfujHr9D3rJNm/WP5uOgrW8M6JNrF/tfcltER5zdP+Aj3NbJ861RLUTotB8PLdzi4uci1B4ToXP9BXcBljARUCoo2qF6KKryW/lIscKgRooVVHQAdqngXy0JlY7gc4xWy0MtxktuztuXpjt6VlXpHnYUcDgnFbEt0pTg8elZFyfMOf4R2FKSEmU45fLkIB696HUnJxmonjO3dnBJqaEmVMdx+tQaEJHWoCpDYHQ1eaMgdKgK5OKllLYqsue1UL6wS5jOV+YDggc1rMnI4pjJwahoo4ufT5Y8kDco647VUIIrtntwsm4D5T1qrd6CsyiRF2MfToaGiozOTBNLmrl1ps9s3zxnb6jpVQqamxpcaPlbNTYJFR47U9Tjjt2pgdJ4TYie5TOPlU/qa7m2l427gT71574ak2amy/34z+hFd1DjGefatoGFX4jTOeCDU0LMe361RDZGMgmnpKUPatbmJolz1IPHtQJFaQEgflUasWTIBqIk7WwxwRjn3qh2IbaZpbW4D9Wy4/PNT2uomCTBO5CeQaqofKuAGxtPB+lV5FaJyCDxxk+1K4I6u0nSaQMg5xnmqnkIzZPEh68daytP1D7LOrEBl7iukCRXUYkgYEGnFiasZM9sytvBHSpLRzHIB6mp3hKNhhg02AK10oQAnP50MaL/AJQjbcV5YcUjx/Lu6+tWJAGj45IPFRM3Yf8A66m5dhUXHNZeuag0KfZIl++MyMTgD0ANVvE3iKLQbHCMrX0ynyYzzj1Yj0H6muB07xHNGxjvXeeJySxZvmBPUg/5FEI3JlojrEuY8YYSI+clCcZ9x2/WrsEobOCrd8Dg/kazPtEMsBljbfESAjj19COxpySQvGziPa68gxnofpVPczVrGjb7d+3KMQcYz2NSBisgDbtoPQnlfaqVuY3dkljB3gA7jgt9OP61M28ykq7+mGH+c0ATABTgO49MrkH8elPt5wyuSiHjIxwcjrVdDKsgzECuedp5/Kp1aOJ2JV+DnrnIPB//AFUDASIjK/kkD/Zbgg1Mpji3IrEMCGGe5qCEgSOqKCoHBB6g1MX83IkQ9O4/rQCJkmTzE2yhWPVH6Ed/6VaB3KcrzjtWcnllclZMEjp+Rq0rp90ucA43E4I/pSGPyp3bWPJ6r2Pv2pwbYMq4Iz9PpQhwx3lsA4JI/I5FDDPyFvvfdYjr6c0xFlXbqc57ZHWp+ZAGVkwRVFfMQAErg+nQn6VJ5h/iQqfTJpAz54S1wm9/l9PWpXb935YB2g5+nvWlDpaXdtI8Fw25RkB068ZxkfSs+3QRs8x5Zl2gdgO5NeXTndnbOlKL1H2dtLcXUdtEuZ5mCr7e5/DNei21umlW0dunKLyzY5Y9ya5nwYwn1wK23CI8ijaOTwvX6Gu6aMMTuxtB4ruprS5zVGr2I1YLljncRwGPBqH7aVILjHbioGnDuV5yDwfamNGWBJOQe1aLYkt+akvToe1J5CjkH8PSsstJA2c1ZjuC/Q80InlsNu41AIH14qgrlJeTWg+DnAyTVKeLk5pSRUWWQwkHPWoJE2mmxOSMg4YdanBEyf7QrO9yxhjDJmocdiKswnBKN+FJLH3FFrhexXig8xzkfKOTVtzkYI5qY2zx26kcd2I7VEA2cEDr2otYHYqyW6OMEDB7HvWNeaJBM26MbD7d635gAMDvVYg1FiuY5OfQ7iPlMOPToaoSW0kRw6Mp9xXdEZzmoJLdHUggEHsaLFRm+pkabZNBeWl0o/dyJyPQkV2Fqcrg5BrNtYSVihRQAvT2rQhXypOSc9xmtI6IipqixuKk4NJ5pMoAbP4Ub1z3pi4aVjzirTI0NRHPljkdM8UkrZjT5urZ4qv5wC4ycD1FR3DMrRkA425+uT/+qruIkugRhwRx1xUxX7TaiUDLAYJqIFJ7fryO1N0648m5MTH5W4xnvSGVmLKx5we9XLC+lhcbWOM0++sgDvTFU7UhbhQc4zzSYLVHTDUY5YsTwlhjr3pbV4BOHjDDPAB7UJArWpOByOKVEAxjtRcaRcMxJP8ASsvXdctfD+mteXJ3OeIogeZG9B7ep7VauLmKzhaaZsAdPUn0Fec+I7SXxFL9peXy5kBVFJO1R6Y/rStfYG7HIanqt1q2oSXt1KWmc9uijso9hTIrjICuefWq9zbzWk7RSrtYfkR7GowQTnvVJ22HudFp2rT2Em5GyjcFTyGHvXZafqNtqMQ+yrGJx96F+p/3WHP868wSZkxkfLV+3uXjYSQuQR6HpVp3M+U9SVx8oyVxyVPzAUhkMb8syZ9PmU/TP9cVz2l+IYr3ZHelVm6CU8BvqR0Pv+dbm54GAJJH+0M5H1pNWJZoqoeYjIOAeVPQ/wC7ULLtk3q3ykYOD0z7GljkA2yeSjYTIZDU7MskfzRA5OQQeR9aQyNQPNGWXzNvGOCfWnLlFljLuCV+VicikZAGBJ56rkdCOtQ+eDcKpyG6YBppjZat3cxMuTg/MM9/WpyQ6sQcEngnpn0NVY2CpkkkbuCR1Bp6uqTNHyN65AHcimBeh2bVdTgkY+U4/DFSYwuAAVPYj+oqpGqGIqpyM8ZHI9j/AJ9KljYJEreYVAPJ9B60hFjj5mAI9cMGA/CkMhU44/z+NN2AbgTluvA6/SpFIKDDngY7UgZ4gtyyWUcIcBiCQTxuGeP5Vnu4b5B0Hp3qMs8srFwV28Y9MdqshLi12K8WzzUDAOo+YE9a8tRSbsddWbm9TW8HyLB4ggbJwysnPuP/AK1d9dT/AD9Ds9B6ivMObTY0bESKd2R2NelAfa9PguVPMsavx05ANd1K6VjlltcqSushEiEBhwRU0bHGeCTVSaI55GGHt1ogk/hJP1q0/eC2hckjWQY4zVCWBouU/Sry88Z470kkBK/L6d6poSbKsM6vhW4b19akZBj1z3qvJH8x4wR3pYpyCI36etJeZW+xC6+RNv6qetPDGKTKng1PIgdcDGKpH91+7f7o+6fSokgiy221mDjHvVuCITuuR8tZAfDbWOD2963NMO1N7fRQaSKZeZcg5H4VSnt8Deo47itAsrdKjlAEZB+lNk2MBzuY00r2q9NakncuPpVUKc4IwfelYpMiKcU0xn0qyYz3BpRGe1FhpkVrCzzBBjJB6j2qd9vDbiGA5BpVjKkEcH1qVYiTz17mmtgbuUEdz0br3qwsmzgDNSzaeJYz5Z2yDkEdCfeqAMqf6xCrDg0k2GhbExaRVxwT1qWK9EkjQzgBWPyN6elUfM/dsUOHxwPWog6uACcH1p8wWNZCbeYqScH0pt1GAwdT9eKrwXWU8uUBiPutV5GV0wR+tWSy3aXiSw7JT29KdFapJcBwPkByTUFvAobpwR0rViXCqOw7Ck2NK+xaDluF/TtSSSx20LSyttRepx1+lRTTw2kBmncKg/U+grj9S1a7vpPMw8US/cEbdB7+9OwN2LN/fvqc5dz5aJwiE/dHqR61VaOVAGADr+f61XUSXMQzJudepI5x9afHbyNGEZ8fNnOcZ7VotDJ6kN5YW1/EYp4tvphgSp9q43VNHn01y3+st84EoHT2I7Gu2kt5Ek/1gJHTNOMTTRtGQrFhyjDIYemf8aTSZSlY84WQ4wenfNSIxX5oz07Vt6v4ZlgHn2kbFeS0WMlfp6iudDFTjms3dGitI0Ypt4BB2tXS6P4jktVW2uS0lvngZ5Q+q1xytu6HBqeK4IID59jWkZp7kuJ65BPBPbJNDIskbdWHHPuOxqXLEjAJRh1U815vpmr3GmyiSJ/lPVTyGHoRXc6XqsGpbHtv3cwP7yLdz9R603Eg1WZhECGywwwHrRKmZiAQcc4xmjfuKlhgAZ+hqFmMs+CUYjjG7mpbuPYeHcSbFyCG2kHuppZHBCSeUuY3weOg79KkBDKCwbjqTzioHUCUqoI80cAHIyP5UBYstMYgTk7c84/Sp0JZCVIZG+bgiqhlP2Y+apY4wQD1FCNhEOc4YqcjBIp9BPU04nESJvDKBkc+lPKxsc/N+dVoiCgRTgdgexqbD4G6FSccmluM8OCortK5BlJJGemfXFEZllfzZ5GkI7sc1DneoLdatx8W68detedSV5G89NBkitg967nwpdi58PrbZ+eBinPbuP51xOSVb26Vt+EJXj1WWFT8jx7iPcEY/mfzrsW5la507zA/K/DDsaqts34X86mvkAbIJB9qobiO9U9CVqXUbnBPFWFfIwTgVnq52qeM1bHU8dKtMlkjqGXnGKrSWqsDg4HrUw5Jz2oHXb29KGroL22KeyaEHo8fcd6jfZKvycjuD1q+3K+n0qoI1a6jByMsMkVNikMTT5Q6btvl+meRWkgCL8pwB2qW6Qb046sf06VVbK8hm/Os2NllJ2Xk09p1lcAHHHT3rIhvJXkKNtxk9qsnh1/n3pjNBFcqTtyPQVBNFHKMjhhVqxlZkwcH61aZEZuVFA7WMmON8AMvbg0/ye4q9IihsYpVgjxnFILEEUanAYAgVZS2jP0qVbeML0p4jAXgmqSGNNso7de9J/ZwlXLAEdsjrVyEblXPcc1MTjCjgUJCuc3feGZWXzbQgsOfLY9foa58r87RyAxzKcMrjGT6fWvRofmOT64rjPGEmdbWEIgCKBuC/M2fU98dqHDS4KTsZgLI205U+9XreY8cjFZSyNnZnir9sAZMYqbu9i9Gb1u5OOfyqe51S209R5jbpT92Nep+vpXNajqNxaSeTAwQf3sfN+dZrXMzgs0hJ7k9/rWkY3M5Stsa17qL3s3mytwvAjHRfwqq0oXmNimehWo7glIEHUtjk9RVVWO4gHA9qtIzkW/tUwPEob9CKeZfMRhKSQR8p9DVRZC3XB+tWLcbyyH7p6imIlzuyrjcw/iU8/l3oJMjqN3PTnt+NSx2sfnSDLfKODnmnqoLqccgcUDRXFy6sFZ2GDzz+tZmraBFqMnmQFIrp84PQP35H9a25LKIEsSzc9DipntUWBJQz7k5XJ4H0pPXcalZ6Hl91aXFjcNBcxNHKvUN/nmmKwIwf/1V6JfWFtqamK4iB+UsrrwynI5B/E15w3yvtB/ix/8AX+tZPQ3WpZjlaPqcrV+1uniYSQuVYc8cEVkIxOR2p6u0cmVNVGbSJkj0zRvFC3YWC8dUnxtEp6N/ven1rfjjjZzlNrEdM8H/AD7V5MjkhX7nr7123hHUbmeQW0r741+7nqv0rSSVroza1sdRgKcBtpb+8ev40eUThiAcHg8UkZ861DMADz04p/lqshAzhsd+n0qVqMgmBZ1Qjj2PFSKu0PD14yMn/P5UkygSqmSRnvyaCNrA5PI6Gn0EOmA8gMRhT19qtxfPErfMDjkZ71WYAFl7AZ+tPGQMBjikxH//2Q==;" vertex="1" parent="1">
          <mxGeometry x="-1005" y="129" width="96" height="96" as="geometry" />
        </mxCell>
        <mxCell id="_ZrnN3WsiZ-yGUKqU9Ik-7" value="HTML/CSS&amp;nbsp;" style="text;html=1;strokeColor=none;fillColor=none;align=center;verticalAlign=middle;whiteSpace=wrap;rounded=0;fontStyle=1" vertex="1" parent="1">
          <mxGeometry x="-1018" y="53" width="130" height="30" as="geometry" />
        </mxCell>
        <mxCell id="_ZrnN3WsiZ-yGUKqU9Ik-9" value="" style="endArrow=none;html=1;rounded=0;" edge="1" parent="1">
          <mxGeometry width="50" height="50" relative="1" as="geometry">
            <mxPoint x="-846" y="767" as="sourcePoint" />
            <mxPoint x="-846" y="106" as="targetPoint" />
          </mxGeometry>
        </mxCell>
        <mxCell id="_ZrnN3WsiZ-yGUKqU9Ik-10" value="JavaScript" style="text;html=1;strokeColor=none;fillColor=none;align=center;verticalAlign=middle;whiteSpace=wrap;rounded=0;fontStyle=1" vertex="1" parent="1">
          <mxGeometry x="-797" y="53" width="130" height="30" as="geometry" />
        </mxCell>
        <mxCell id="_ZrnN3WsiZ-yGUKqU9Ik-11" value="" style="endArrow=none;html=1;rounded=0;" edge="1" parent="1">
          <mxGeometry width="50" height="50" relative="1" as="geometry">
            <mxPoint x="-625" y="767" as="sourcePoint" />
            <mxPoint x="-625" y="106" as="targetPoint" />
          </mxGeometry>
        </mxCell>
        <mxCell id="_ZrnN3WsiZ-yGUKqU9Ik-12" value="Ganesh Pilli" style="sketch=0;outlineConnect=0;fontColor=#232F3E;gradientColor=none;fillColor=#232F3D;strokeColor=none;dashed=0;verticalLabelPosition=bottom;verticalAlign=top;align=center;html=1;fontSize=12;fontStyle=0;aspect=fixed;pointerEvents=1;shape=mxgraph.aws4.user;" vertex="1" parent="1">
          <mxGeometry x="-766" y="129" width="78" height="78" as="geometry" />
        </mxCell>
        <mxCell id="_ZrnN3WsiZ-yGUKqU9Ik-13" value="Typescript" style="text;html=1;strokeColor=none;fillColor=none;align=center;verticalAlign=middle;whiteSpace=wrap;rounded=0;fontStyle=1" vertex="1" parent="1">
          <mxGeometry x="-596" y="49" width="130" height="30" as="geometry" />
        </mxCell>
        <mxCell id="_ZrnN3WsiZ-yGUKqU9Ik-14" value="" style="endArrow=none;html=1;rounded=0;" edge="1" parent="1">
          <mxGeometry width="50" height="50" relative="1" as="geometry">
            <mxPoint x="-424" y="763" as="sourcePoint" />
            <mxPoint x="-424" y="102" as="targetPoint" />
          </mxGeometry>
        </mxCell>
        <mxCell id="_ZrnN3WsiZ-yGUKqU9Ik-15" value="Angular" style="text;html=1;strokeColor=none;fillColor=none;align=center;verticalAlign=middle;whiteSpace=wrap;rounded=0;fontStyle=1" vertex="1" parent="1">
          <mxGeometry x="-386" y="53" width="130" height="30" as="geometry" />
        </mxCell>
        <mxCell id="_ZrnN3WsiZ-yGUKqU9Ik-16" value="" style="endArrow=none;html=1;rounded=0;" edge="1" parent="1">
          <mxGeometry width="50" height="50" relative="1" as="geometry">
            <mxPoint x="-214" y="767" as="sourcePoint" />
            <mxPoint x="-214" y="106" as="targetPoint" />
          </mxGeometry>
        </mxCell>
        <mxCell id="_ZrnN3WsiZ-yGUKqU9Ik-17" value="Node" style="text;html=1;strokeColor=none;fillColor=none;align=center;verticalAlign=middle;whiteSpace=wrap;rounded=0;fontStyle=1" vertex="1" parent="1">
          <mxGeometry x="-170" y="51" width="130" height="30" as="geometry" />
        </mxCell>
        <mxCell id="_ZrnN3WsiZ-yGUKqU9Ik-18" value="" style="endArrow=none;html=1;rounded=0;" edge="1" parent="1">
          <mxGeometry width="50" height="50" relative="1" as="geometry">
            <mxPoint x="2" y="765" as="sourcePoint" />
            <mxPoint x="2" y="104" as="targetPoint" />
          </mxGeometry>
        </mxCell>
        <mxCell id="_ZrnN3WsiZ-yGUKqU9Ik-19" value="Docker" style="text;html=1;strokeColor=none;fillColor=none;align=center;verticalAlign=middle;whiteSpace=wrap;rounded=0;fontStyle=1" vertex="1" parent="1">
          <mxGeometry x="57" y="49" width="130" height="30" as="geometry" />
        </mxCell>
        <mxCell id="_ZrnN3WsiZ-yGUKqU9Ik-20" value="" style="endArrow=none;html=1;rounded=0;" edge="1" parent="1">
          <mxGeometry width="50" height="50" relative="1" as="geometry">
            <mxPoint x="229" y="763" as="sourcePoint" />
            <mxPoint x="229" y="102" as="targetPoint" />
          </mxGeometry>
        </mxCell>
        <mxCell id="_ZrnN3WsiZ-yGUKqU9Ik-21" value="DB" style="text;html=1;strokeColor=none;fillColor=none;align=center;verticalAlign=middle;whiteSpace=wrap;rounded=0;fontStyle=1" vertex="1" parent="1">
          <mxGeometry x="246" y="49" width="130" height="30" as="geometry" />
        </mxCell>
        <mxCell id="_ZrnN3WsiZ-yGUKqU9Ik-22" value="" style="endArrow=none;html=1;rounded=0;" edge="1" parent="1">
          <mxGeometry width="50" height="50" relative="1" as="geometry">
            <mxPoint x="418" y="763" as="sourcePoint" />
            <mxPoint x="418" y="102" as="targetPoint" />
          </mxGeometry>
        </mxCell>
        <mxCell id="_ZrnN3WsiZ-yGUKqU9Ik-23" value="Ganesh Pilli" style="sketch=0;outlineConnect=0;fontColor=#232F3E;gradientColor=none;fillColor=#232F3D;strokeColor=none;dashed=0;verticalLabelPosition=bottom;verticalAlign=top;align=center;html=1;fontSize=12;fontStyle=0;aspect=fixed;pointerEvents=1;shape=mxgraph.aws4.user;" vertex="1" parent="1">
          <mxGeometry x="-559" y="129" width="78" height="78" as="geometry" />
        </mxCell>
        <mxCell id="_ZrnN3WsiZ-yGUKqU9Ik-24" value="Santhosh Japa" style="sketch=0;outlineConnect=0;fontColor=#232F3E;gradientColor=none;fillColor=#232F3D;strokeColor=none;dashed=0;verticalLabelPosition=bottom;verticalAlign=top;align=center;html=1;fontSize=12;fontStyle=0;aspect=fixed;pointerEvents=1;shape=mxgraph.aws4.user;" vertex="1" parent="1">
          <mxGeometry x="-559" y="274" width="78" height="78" as="geometry" />
        </mxCell>
        <mxCell id="_ZrnN3WsiZ-yGUKqU9Ik-25" value="Ganesh Pilli" style="sketch=0;outlineConnect=0;fontColor=#232F3E;gradientColor=none;fillColor=#232F3D;strokeColor=none;dashed=0;verticalLabelPosition=bottom;verticalAlign=top;align=center;html=1;fontSize=12;fontStyle=0;aspect=fixed;pointerEvents=1;shape=mxgraph.aws4.user;" vertex="1" parent="1">
          <mxGeometry x="-352" y="119" width="78" height="78" as="geometry" />
        </mxCell>
        <mxCell id="_ZrnN3WsiZ-yGUKqU9Ik-27" value="Ravi Soda" style="sketch=0;outlineConnect=0;fontColor=#232F3E;gradientColor=none;fillColor=#232F3D;strokeColor=none;dashed=0;verticalLabelPosition=bottom;verticalAlign=top;align=center;html=1;fontSize=12;fontStyle=0;aspect=fixed;pointerEvents=1;shape=mxgraph.aws4.user;" vertex="1" parent="1">
          <mxGeometry x="-144" y="119" width="78" height="78" as="geometry" />
        </mxCell>
        <mxCell id="_ZrnN3WsiZ-yGUKqU9Ik-28" value="Harshavardan" style="sketch=0;outlineConnect=0;fontColor=#232F3E;gradientColor=none;fillColor=#232F3D;strokeColor=none;dashed=0;verticalLabelPosition=bottom;verticalAlign=top;align=center;html=1;fontSize=12;fontStyle=0;aspect=fixed;pointerEvents=1;shape=mxgraph.aws4.user;" vertex="1" parent="1">
          <mxGeometry x="-352" y="274" width="78" height="78" as="geometry" />
        </mxCell>
        <mxCell id="_ZrnN3WsiZ-yGUKqU9Ik-29" value="Harshavardan" style="sketch=0;outlineConnect=0;fontColor=#232F3E;gradientColor=none;fillColor=#232F3D;strokeColor=none;dashed=0;verticalLabelPosition=bottom;verticalAlign=top;align=center;html=1;fontSize=12;fontStyle=0;aspect=fixed;pointerEvents=1;shape=mxgraph.aws4.user;" vertex="1" parent="1">
          <mxGeometry x="-766" y="274" width="78" height="78" as="geometry" />
        </mxCell>
        <mxCell id="_ZrnN3WsiZ-yGUKqU9Ik-30" value="Anurag Reddy" style="sketch=0;outlineConnect=0;fontColor=#232F3E;gradientColor=none;fillColor=#232F3D;strokeColor=none;dashed=0;verticalLabelPosition=bottom;verticalAlign=top;align=center;html=1;fontSize=12;fontStyle=0;aspect=fixed;pointerEvents=1;shape=mxgraph.aws4.user;" vertex="1" parent="1">
          <mxGeometry x="-766" y="413" width="78" height="78" as="geometry" />
        </mxCell>
        <mxCell id="_ZrnN3WsiZ-yGUKqU9Ik-31" value="Sharath Berkadia" style="sketch=0;outlineConnect=0;fontColor=#232F3E;gradientColor=none;fillColor=#232F3D;strokeColor=none;dashed=0;verticalLabelPosition=bottom;verticalAlign=top;align=center;html=1;fontSize=12;fontStyle=0;aspect=fixed;pointerEvents=1;shape=mxgraph.aws4.user;" vertex="1" parent="1">
          <mxGeometry x="-144" y="274" width="78" height="78" as="geometry" />
        </mxCell>
        <mxCell id="_ZrnN3WsiZ-yGUKqU9Ik-32" value="Ravi" style="sketch=0;outlineConnect=0;fontColor=#232F3E;gradientColor=none;fillColor=#232F3D;strokeColor=none;dashed=0;verticalLabelPosition=bottom;verticalAlign=top;align=center;html=1;fontSize=12;fontStyle=0;aspect=fixed;pointerEvents=1;shape=mxgraph.aws4.user;" vertex="1" parent="1">
          <mxGeometry x="289" y="119" width="78" height="78" as="geometry" />
        </mxCell>
        <mxCell id="_ZrnN3WsiZ-yGUKqU9Ik-33" value="Arun Kumar" style="sketch=0;outlineConnect=0;fontColor=#232F3E;gradientColor=none;fillColor=#232F3D;strokeColor=none;dashed=0;verticalLabelPosition=bottom;verticalAlign=top;align=center;html=1;fontSize=12;fontStyle=0;aspect=fixed;pointerEvents=1;shape=mxgraph.aws4.user;" vertex="1" parent="1">
          <mxGeometry x="289" y="274" width="78" height="78" as="geometry" />
        </mxCell>
        <mxCell id="_ZrnN3WsiZ-yGUKqU9Ik-34" value="Santhosh Japa" style="sketch=0;outlineConnect=0;fontColor=#232F3E;gradientColor=none;fillColor=#232F3D;strokeColor=none;dashed=0;verticalLabelPosition=bottom;verticalAlign=top;align=center;html=1;fontSize=12;fontStyle=0;aspect=fixed;pointerEvents=1;shape=mxgraph.aws4.user;" vertex="1" parent="1">
          <mxGeometry x="-144" y="413" width="78" height="78" as="geometry" />
        </mxCell>
        <mxCell id="_ZrnN3WsiZ-yGUKqU9Ik-35" value="Ganesh Pilli" style="sketch=0;outlineConnect=0;fontColor=#232F3E;gradientColor=none;fillColor=#232F3D;strokeColor=none;dashed=0;verticalLabelPosition=bottom;verticalAlign=top;align=center;html=1;fontSize=12;fontStyle=0;aspect=fixed;pointerEvents=1;shape=mxgraph.aws4.user;" vertex="1" parent="1">
          <mxGeometry x="83" y="119" width="78" height="78" as="geometry" />
        </mxCell>
        <mxCell id="_ZrnN3WsiZ-yGUKqU9Ik-36" value="Sharath Berkadia" style="sketch=0;outlineConnect=0;fontColor=#232F3E;gradientColor=none;fillColor=#232F3D;strokeColor=none;dashed=0;verticalLabelPosition=bottom;verticalAlign=top;align=center;html=1;fontSize=12;fontStyle=0;aspect=fixed;pointerEvents=1;shape=mxgraph.aws4.user;" vertex="1" parent="1">
          <mxGeometry x="83" y="274" width="78" height="78" as="geometry" />
        </mxCell>
        <mxCell id="_ZrnN3WsiZ-yGUKqU9Ik-37" value="Admin" style="text;html=1;strokeColor=none;fillColor=none;align=center;verticalAlign=middle;whiteSpace=wrap;rounded=0;fontStyle=1" vertex="1" parent="1">
          <mxGeometry x="448" y="49" width="130" height="30" as="geometry" />
        </mxCell>
        <mxCell id="_ZrnN3WsiZ-yGUKqU9Ik-38" value="" style="endArrow=none;html=1;rounded=0;" edge="1" parent="1">
          <mxGeometry width="50" height="50" relative="1" as="geometry">
            <mxPoint x="620" y="763" as="sourcePoint" />
            <mxPoint x="620" y="102" as="targetPoint" />
          </mxGeometry>
        </mxCell>
        <mxCell id="_ZrnN3WsiZ-yGUKqU9Ik-39" value="Anji" style="sketch=0;outlineConnect=0;fontColor=#232F3E;gradientColor=none;fillColor=#232F3D;strokeColor=none;dashed=0;verticalLabelPosition=bottom;verticalAlign=top;align=center;html=1;fontSize=12;fontStyle=0;aspect=fixed;pointerEvents=1;shape=mxgraph.aws4.user;" vertex="1" parent="1">
          <mxGeometry x="474" y="114" width="78" height="78" as="geometry" />
        </mxCell>
        <mxCell id="_ZrnN3WsiZ-yGUKqU9Ik-40" value="Ganesh Pilli" style="sketch=0;outlineConnect=0;fontColor=#232F3E;gradientColor=none;fillColor=#232F3D;strokeColor=none;dashed=0;verticalLabelPosition=bottom;verticalAlign=top;align=center;html=1;fontSize=12;fontStyle=0;aspect=fixed;pointerEvents=1;shape=mxgraph.aws4.user;" vertex="1" parent="1">
          <mxGeometry x="-996" y="274" width="78" height="78" as="geometry" />
        </mxCell>
      </root>
    </mxGraphModel>
  </diagram>
</mxfile>
